<svg width="28" height="28" viewBox="0 0 28 28" fill="none" xmlns="http://www.w3.org/2000/svg">
<path fill-rule="evenodd" clip-rule="evenodd" d="M16.4128 3.97346C17.0645 3.31922 17.9815 2.86516 18.9937 3.03554C20.0114 3.20682 20.7215 3.94095 21.1054 4.7812C21.4903 5.62398 21.5991 6.65904 21.4073 7.69759C21.2154 8.73654 20.7433 9.66779 20.0871 10.3266C19.4354 10.9808 18.5183 11.4349 17.5061 11.2645C16.4885 11.0932 15.7784 10.3591 15.3945 9.51888C15.0096 8.67609 14.9008 7.64103 15.0926 6.60249C15.2845 5.56354 15.7565 4.63229 16.4128 3.97346ZM17.8298 5.38494C17.4901 5.72592 17.1866 6.27694 17.0593 6.96575C16.932 7.65495 17.021 8.26599 17.2137 8.68789C17.4076 9.11233 17.6551 9.26147 17.8381 9.29228C18.0266 9.324 18.3259 9.26071 18.6701 8.91513C19.0098 8.57415 19.3133 8.02313 19.4405 7.33432C19.5678 6.64512 19.4789 6.03408 19.2862 5.61218C19.0923 5.18774 18.8448 5.0386 18.6618 5.00779C18.4733 4.97607 18.174 5.03937 17.8298 5.38494Z" fill="black"/>
<path fill-rule="evenodd" clip-rule="evenodd" d="M10.8077 13.6269C11.5456 12.7185 12.5563 12 14 12C15.4462 12 16.4568 12.7248 17.1931 13.6335C17.8036 14.3869 18.2867 15.3466 18.715 16.1976C18.7748 16.3163 18.8334 16.4329 18.8913 16.5465C19.2401 17.232 19.5761 17.7664 19.8907 18.2666C20.0069 18.4514 20.1204 18.6319 20.2303 18.8132C20.6053 19.432 21.0002 20.1531 21 20.9966C20.9999 21.681 20.8325 22.2795 20.4862 22.7657C20.1423 23.2484 19.6811 23.5375 19.2351 23.7097C18.464 24.0075 17.5862 24.0029 17.1109 24.0004C17.071 24.0002 17.0339 24 17 24C16.4597 24 16.0291 23.9247 15.6482 23.8582L15.5185 23.8356C15.1112 23.7658 14.6722 23.7 14 23.7C13.3277 23.7 12.8888 23.7658 12.4814 23.8356L12.3518 23.8582C11.9709 23.9247 11.5403 24 11 24L10.9972 24L10.7848 23.9994L10.7796 23.9994C10.2582 23.9952 9.36077 23.9695 8.57664 23.6012C8.16353 23.4071 7.75335 23.1059 7.45158 22.6444C7.14829 22.1805 7 21.6242 7 20.9964C7 20.1848 7.40164 19.4608 7.7671 18.8506C7.8716 18.6761 7.97983 18.5011 8.09116 18.3211C8.40939 17.8065 8.75295 17.251 9.10737 16.5492C9.1608 16.4434 9.21494 16.3352 9.26996 16.2253C9.70268 15.3605 10.1892 14.3882 10.8077 13.6269ZM11.0543 17.1295C11.0015 17.2347 10.9477 17.3418 10.8926 17.4508C10.4953 18.2376 10.0864 18.8984 9.76089 19.4245C9.65915 19.589 9.56547 19.7403 9.4829 19.8782C9.09835 20.5203 9 20.8044 9 20.9964C9 21.3037 9.06949 21.4642 9.12553 21.5499C9.1831 21.6379 9.27381 21.719 9.42692 21.7909C9.77468 21.9543 10.27 21.9951 10.793 21.9994L10.7955 21.9994L11 22H11.0013C11.3602 21.9999 11.6267 21.9538 12.0159 21.8864L12.1435 21.8644C12.6112 21.7842 13.1722 21.7 14 21.7C14.8277 21.7 15.3887 21.7842 15.8564 21.8644L15.9841 21.8864C16.3738 21.9538 16.6404 22 17 22L17.0395 22C17.5871 22.0001 18.1102 22.0002 18.5146 21.844C18.6935 21.7749 18.7948 21.6929 18.8572 21.6053C18.9172 21.5211 18.9999 21.35 19 20.9962C19 20.7632 18.8949 20.4687 18.5198 19.8497C18.4358 19.711 18.3395 19.5579 18.2343 19.3907C17.9107 18.8763 17.5028 18.2278 17.1088 17.4535C17.0463 17.3308 16.9854 17.2104 16.9258 17.0923C16.4813 16.2129 16.1038 15.4659 15.6392 14.8926C15.153 14.2926 14.6636 14 14 14C13.3339 14 12.8446 14.2915 12.36 14.888C11.8894 15.4672 11.507 16.2284 11.0543 17.1295Z" fill="black"/>
<path fill-rule="evenodd" clip-rule="evenodd" d="M12.9073 6.60249C12.7154 5.56354 12.2433 4.63229 11.5871 3.97346C10.9354 3.31922 10.0183 2.86516 9.00614 3.03554C7.98851 3.20682 7.27836 3.94095 6.89454 4.7812C6.50957 5.62398 6.40079 6.65904 6.59261 7.69759C6.78451 8.73654 7.25655 9.66779 7.91283 10.3266C8.56454 10.9809 9.48154 11.4349 10.4938 11.2645C11.5114 11.0933 12.2215 10.3591 12.6053 9.51888C12.9903 8.67609 13.0991 7.64103 12.9073 6.60249ZM9.33811 5.00779C9.52655 4.97607 9.82588 5.03937 10.1701 5.38494C10.5098 5.72592 10.8133 6.27695 10.9405 6.96575C11.0678 7.65496 10.9789 8.26599 10.7862 8.68789C10.5923 9.11233 10.3448 9.26147 10.1618 9.29228C9.97334 9.324 9.67401 9.26071 9.32977 8.91514C8.99011 8.57415 8.68657 8.02313 8.55935 7.33432C8.43205 6.64512 8.52102 6.03408 8.71374 5.61218C8.90761 5.18774 9.15509 5.0386 9.33811 5.00779Z" fill="black"/>
<path fill-rule="evenodd" clip-rule="evenodd" d="M5.63493 10.4409C6.39043 10.8692 7.05146 11.5791 7.48785 12.4513C7.92363 13.3224 8.09143 14.2688 7.9522 15.1179C7.81254 15.9696 7.33799 16.8036 6.43808 17.1948C5.55489 17.5787 4.61197 17.3827 3.86497 16.9592C3.10947 16.5309 2.44843 15.8211 2.01204 14.9488C1.57626 14.0777 1.40847 13.1313 1.5477 12.2822C1.68736 11.4305 2.16191 10.5965 3.06181 10.2053C3.945 9.82147 4.88793 10.0174 5.63493 10.4409ZM4.64853 12.1807C4.26158 11.9614 3.99405 11.9809 3.85905 12.0396C3.74078 12.091 3.58221 12.2346 3.52134 12.6058C3.46003 12.9797 3.52429 13.5015 3.8007 14.054C4.07648 14.6052 4.4729 15.0048 4.85136 15.2194C5.23831 15.4388 5.50585 15.4192 5.64084 15.3605C5.75911 15.3091 5.91768 15.1655 5.97856 14.7943C6.03986 14.4204 5.9756 13.8987 5.6992 13.3462C5.42341 12.7949 5.02699 12.3953 4.64853 12.1807Z" fill="black"/>
<path fill-rule="evenodd" clip-rule="evenodd" d="M24.9744 10.2354C24.0561 9.7919 23.0771 10.0254 22.3253 10.499C21.567 10.9767 20.9184 11.7578 20.4946 12.699C20.0705 13.641 19.9137 14.6493 20.0453 15.5415C20.1749 16.4197 20.6173 17.3257 21.5256 17.7644C22.444 18.2079 23.4229 17.9744 24.1748 17.5007C24.9331 17.0231 25.5817 16.242 26.0055 15.3008C26.4296 14.3588 26.5864 13.3505 26.4548 12.4583C26.3251 11.58 25.8828 10.6741 24.9744 10.2354ZM22.3183 13.5201C22.6067 12.8796 23.0156 12.4279 23.3913 12.1913C23.7733 11.9506 24.0048 11.9881 24.1047 12.0364C24.2145 12.0894 24.4053 12.2697 24.4762 12.7503C24.5451 13.2169 24.4698 13.8399 24.1818 14.4797C23.8934 15.1202 23.4845 15.5718 23.1088 15.8085C22.7267 16.0492 22.4953 16.0116 22.3954 15.9634C22.2855 15.9103 22.0948 15.73 22.0239 15.2495C21.955 14.7828 22.0303 14.1598 22.3183 13.5201Z" fill="black"/>
</svg>
