<svg width="28" height="28" viewBox="0 0 28 28" fill="none" xmlns="http://www.w3.org/2000/svg">
<path fill-rule="evenodd" clip-rule="evenodd" d="M14.0187 5.5C8.63364 5.5 4.53712 9.21891 4.53712 13.4989C4.53712 15.0359 5.05176 16.4778 5.95898 17.6996C6.087 17.872 6.15612 18.081 6.15612 18.2957C6.15612 19.3376 5.8825 20.3477 5.54596 21.2587C5.33399 21.8325 5.08216 22.4034 4.84169 22.9339C6.89776 22.7155 8.2466 22.0571 9.05995 21.1C9.33312 20.7786 9.77864 20.6631 10.1736 20.8114C10.7531 21.0291 11.364 21.1993 11.9995 21.3158C12.5427 21.4154 12.9023 21.9365 12.8028 22.4798C12.7032 23.023 12.182 23.3826 11.6388 23.283C11.1123 23.1865 10.5987 23.0585 10.1007 22.9013C8.65586 24.2498 6.55656 24.898 3.98853 24.9989C2.94243 25.04 2.18738 23.9519 2.6254 22.978C2.71515 22.7771 2.80568 22.5784 2.89568 22.381C3.17139 21.7762 3.44211 21.1822 3.66987 20.5657C3.92598 19.8724 4.1004 19.2173 4.14491 18.6002C3.12808 17.1195 2.53712 15.3721 2.53712 13.4989C2.53712 7.83902 7.82614 3.5 14.0187 3.5C18.2657 3.5 22.031 5.51254 24.0228 8.58509C24.3232 9.04852 24.1911 9.66774 23.7276 9.96815C23.2642 10.2686 22.645 10.1364 22.3446 9.67299C20.7566 7.22338 17.655 5.5 14.0187 5.5Z" fill="black"/>
<path fill-rule="evenodd" clip-rule="evenodd" d="M19.1372 12.8238C19.8737 12.3287 20.6913 12.053 21.575 12.0069L21.8421 12C24.1384 12 26 13.8615 26 16.1577C26 18.4005 25.1084 19.5162 21.5527 22.2815L19.9063 23.562C19.3732 23.9766 18.6268 23.9766 18.0937 23.562L16.4473 22.2815C12.8916 19.5162 12 18.4005 12 16.1577C12 13.8615 13.8616 12 16.1579 12C17.1444 12 18.0526 12.2792 18.8628 12.8238L19 12.92L19.1372 12.8238ZM24 16.1577C24 14.966 23.0339 14 21.8421 14C21.0389 14 20.3438 14.3008 19.7069 14.9373L19.3534 15.2905C19.1582 15.4856 18.8418 15.4856 18.6466 15.2905L18.2931 14.9373C17.6562 14.3008 16.9611 14 16.1579 14C14.9661 14 14 14.966 14 16.1577C14 17.5679 14.5841 18.2988 17.6752 20.7028L19 21.733L20.8447 20.2954C23.4002 18.2756 23.9656 17.5316 23.9984 16.2804L24 16.1577Z" fill="black"/>
</svg>
